<svg id="visual" viewBox="0 0 900 600" width="900" height="600" xmlns="http://www.w3.org/2000/svg" xmlns:xlink="http://www.w3.org/1999/xlink" version="1.1"><path d="M0 389L21.5 392.2C43 395.3 86 401.7 128.8 399C171.7 396.3 214.3 384.7 257.2 378.2C300 371.7 343 370.3 385.8 374.2C428.7 378 471.3 387 514.2 395.2C557 403.3 600 410.7 642.8 418.5C685.7 426.3 728.3 434.7 771.2 429.5C814 424.3 857 405.7 878.5 396.3L900 387L900 601L878.5 601C857 601 814 601 771.2 601C728.3 601 685.7 601 642.8 601C600 601 557 601 514.2 601C471.3 601 428.7 601 385.8 601C343 601 300 601 257.2 601C214.3 601 171.7 601 128.8 601C86 601 43 601 21.5 601L0 601Z" fill="#0b7dff"></path><path d="M0 436L21.5 435.2C43 434.3 86 432.7 128.8 433.3C171.7 434 214.3 437 257.2 442.5C300 448 343 456 385.8 454.2C428.7 452.3 471.3 440.7 514.2 437.2C557 433.7 600 438.3 642.8 433.2C685.7 428 728.3 413 771.2 411.8C814 410.7 857 423.3 878.5 429.7L900 436L900 601L878.5 601C857 601 814 601 771.2 601C728.3 601 685.7 601 642.8 601C600 601 557 601 514.2 601C471.3 601 428.7 601 385.8 601C343 601 300 601 257.2 601C214.3 601 171.7 601 128.8 601C86 601 43 601 21.5 601L0 601Z" fill="#0067d1"></path><path d="M0 457L21.5 465C43 473 86 489 128.8 489.3C171.7 489.7 214.3 474.3 257.2 468.2C300 462 343 465 385.8 471C428.7 477 471.3 486 514.2 492.8C557 499.7 600 504.3 642.8 496.2C685.7 488 728.3 467 771.2 460.2C814 453.3 857 460.7 878.5 464.3L900 468L900 601L878.5 601C857 601 814 601 771.2 601C728.3 601 685.7 601 642.8 601C600 601 557 601 514.2 601C471.3 601 428.7 601 385.8 601C343 601 300 601 257.2 601C214.3 601 171.7 601 128.8 601C86 601 43 601 21.5 601L0 601Z" fill="#0051a4"></path><path d="M0 537L21.5 531.2C43 525.3 86 513.7 128.8 514.5C171.7 515.3 214.3 528.7 257.2 532.8C300 537 343 532 385.8 529.5C428.7 527 471.3 527 514.2 524.8C557 522.7 600 518.3 642.8 511.8C685.7 505.3 728.3 496.7 771.2 491.3C814 486 857 484 878.5 483L900 482L900 601L878.5 601C857 601 814 601 771.2 601C728.3 601 685.7 601 642.8 601C600 601 557 601 514.2 601C471.3 601 428.7 601 385.8 601C343 601 300 601 257.2 601C214.3 601 171.7 601 128.8 601C86 601 43 601 21.5 601L0 601Z" fill="#003c79"></path><path d="M0 533L21.5 531.8C43 530.7 86 528.3 128.8 532.2C171.7 536 214.3 546 257.2 551.8C300 557.7 343 559.3 385.8 556.2C428.7 553 471.3 545 514.2 544.7C557 544.3 600 551.7 642.8 549.7C685.7 547.7 728.3 536.3 771.2 532.8C814 529.3 857 533.7 878.5 535.8L900 538L900 601L878.5 601C857 601 814 601 771.2 601C728.3 601 685.7 601 642.8 601C600 601 557 601 514.2 601C471.3 601 428.7 601 385.8 601C343 601 300 601 257.2 601C214.3 601 171.7 601 128.8 601C86 601 43 601 21.5 601L0 601Z" fill="#002850"></path></svg>