<svg id="visual" viewBox="0 0 900 450" width="900" height="450" xmlns="http://www.w3.org/2000/svg" xmlns:xlink="http://www.w3.org/1999/xlink" version="1.1"><rect x="0" y="0" width="900" height="450" fill="#00101f"></rect><path d="M0 292L21.5 294.3C43 296.7 86 301.3 128.8 299.3C171.7 297.3 214.3 288.7 257.2 283.8C300 279 343 278 385.8 280.8C428.7 283.7 471.3 290.3 514.2 296.3C557 302.3 600 307.7 642.8 313.5C685.7 319.3 728.3 325.7 771.2 321.8C814 318 857 304 878.5 297L900 290L900 451L878.5 451C857 451 814 451 771.2 451C728.3 451 685.7 451 642.8 451C600 451 557 451 514.2 451C471.3 451 428.7 451 385.8 451C343 451 300 451 257.2 451C214.3 451 171.7 451 128.8 451C86 451 43 451 21.5 451L0 451Z" fill="#0b7dff"></path><path d="M0 327L21.5 326.3C43 325.7 86 324.3 128.8 324.7C171.7 325 214.3 327 257.2 331.2C300 335.3 343 341.7 385.8 340.3C428.7 339 471.3 330 514.2 327.3C557 324.7 600 328.3 642.8 324.5C685.7 320.7 728.3 309.3 771.2 308.3C814 307.3 857 316.7 878.5 321.3L900 326L900 451L878.5 451C857 451 814 451 771.2 451C728.3 451 685.7 451 642.8 451C600 451 557 451 514.2 451C471.3 451 428.7 451 385.8 451C343 451 300 451 257.2 451C214.3 451 171.7 451 128.8 451C86 451 43 451 21.5 451L0 451Z" fill="#0067d1"></path><path d="M0 342L21.5 348C43 354 86 366 128.8 366.3C171.7 366.7 214.3 355.3 257.2 350.8C300 346.3 343 348.7 385.8 353.2C428.7 357.7 471.3 364.3 514.2 369.5C557 374.7 600 378.3 642.8 372.2C685.7 366 728.3 350 771.2 344.8C814 339.7 857 345.3 878.5 348.2L900 351L900 451L878.5 451C857 451 814 451 771.2 451C728.3 451 685.7 451 642.8 451C600 451 557 451 514.2 451C471.3 451 428.7 451 385.8 451C343 451 300 451 257.2 451C214.3 451 171.7 451 128.8 451C86 451 43 451 21.5 451L0 451Z" fill="#0051a4"></path><path d="M0 403L21.5 398.5C43 394 86 385 128.8 385.7C171.7 386.3 214.3 396.7 257.2 399.8C300 403 343 399 385.8 397C428.7 395 471.3 395 514.2 393.3C557 391.7 600 388.3 642.8 383.5C685.7 378.7 728.3 372.3 771.2 368.3C814 364.3 857 362.7 878.5 361.8L900 361L900 451L878.5 451C857 451 814 451 771.2 451C728.3 451 685.7 451 642.8 451C600 451 557 451 514.2 451C471.3 451 428.7 451 385.8 451C343 451 300 451 257.2 451C214.3 451 171.7 451 128.8 451C86 451 43 451 21.5 451L0 451Z" fill="#003c79"></path><path d="M0 400L21.5 399C43 398 86 396 128.8 398.8C171.7 401.7 214.3 409.3 257.2 413.8C300 418.3 343 419.7 385.8 417.2C428.7 414.7 471.3 408.3 514.2 408C557 407.7 600 413.3 642.8 411.8C685.7 410.3 728.3 401.7 771.2 399C814 396.3 857 399.7 878.5 401.3L900 403L900 451L878.5 451C857 451 814 451 771.2 451C728.3 451 685.7 451 642.8 451C600 451 557 451 514.2 451C471.3 451 428.7 451 385.8 451C343 451 300 451 257.2 451C214.3 451 171.7 451 128.8 451C86 451 43 451 21.5 451L0 451Z" fill="#002850"></path></svg>